<svg width="14" height="15" viewBox="0 0 14 15" fill="none" xmlns="http://www.w3.org/2000/svg">
<path d="M12.5 0C12.9602 0 13.3333 0.373096 13.3333 0.833333C13.3333 1.29357 12.9602 1.66667 12.5 1.66667H9.74447L5.36947 13.3333H8.33333C8.79357 13.3333 9.16667 13.7064 9.16667 14.1667C9.16667 14.6269 8.79357 15 8.33333 15H0.833333C0.373096 15 0 14.6269 0 14.1667C0 13.7064 0.373096 13.3333 0.833333 13.3333H3.58887L7.96387 1.66667H5C4.53976 1.66667 4.16667 1.29357 4.16667 0.833333C4.16667 0.373096 4.53976 0 5 0H12.5Z" fill="#8A8A8C"/>
</svg>
